<svg xmlns="http://www.w3.org/2000/svg" width="274" height="208">
  <path fill="#CCB5F1" d="M138 21c3.302 1.957 5.448 3.407 6.734 7.121.717 4.248.535 6.361-1.484 10.254-1.692 1.974-3.417 3.792-5.25 5.625v2c1.987 1.313 1.987 1.313 4.5 2.625 3.62 2.085 6.389 4.092 9.188 7.188 6.781 7.105 15.88 11.548 24.625 15.804.9.44 1.802.878 2.73 1.33 1.774.854 3.555 1.693 5.343 2.515 3.579 1.705 6.144 2.992 8.755 6.022 1.012 2.965.567 4.52-.141 7.516-7.43-2.832-14.55-6.128-21.688-9.625-3.32-1.597-6.645-3.187-9.97-4.775-2.201-1.054-4.4-2.114-6.594-3.18a635.141 635.141 0 0 0-9.248-4.358l-2.8-1.379c-4.265-1.934-7.403-3.238-11.993-1.816A128.442 128.442 0 0 0 126 66l-3.098 1.321a578.461 578.461 0 0 0-10.715 4.742l-1.917.86c-9.263 4.154-18.404 8.495-27.367 13.269C80.971 87.199 78.99 88.11 77 89l-3-1c.367-6.362.367-6.362 2.922-8.938 4.165-2.79 8.58-4.75 13.14-6.812 11.054-5.144 20.55-10.449 28.989-19.418C122.38 49.702 127.265 46 132 46l-.313-2.75C132 40 132 40 134.375 37.625 137 36 137 36 139 36c.167-3.417.167-3.417 0-7-1.94-2.349-1.94-2.349-5.438-2.438-1.175.145-2.35.29-3.562.438-1.808 2.374-1.808 2.374-3 5l-3 1-1-1c.161-4.278.316-6.333 3.438-9.375 4.42-2.804 6.354-2.84 11.562-1.625Z"/>
  <path fill="#A690DB" d="m131 89 1 13 3-2c7.019-.78 7.019-.78 10.438 1.938 3.317 6.501 2.711 13.04 1.562 20.062h2l-1 4h-10v-19l-5-1c-.776 3.103-1.047 5.945-1 9.125 0 3.875 0 3.875-1 6.875h2v4h-11l-1-4h2V94l-3-1c3.365-3.87 5.96-4 11-4Z"/>
  <path fill="#F7B0B9" d="M127 132v13l4-3c2.938-.5 2.938-.5 6 0 2.764 2.04 4.685 3.662 5.494 7.098.221 2.415.301 4.79.319 7.214l.076 2.534A359.1 359.1 0 0 1 143 165h2l-1 3h-11l1-4c.068-2.416.085-4.833.063-7.25l-.028-3.828L134 150l-4-2-3 2a61.595 61.595 0 0 0-.188 7.625l.042 2.14c.035 1.746.089 3.49.146 5.235h2v3h-12l1-4c.081-2.098.108-4.198.098-6.297l-.01-3.652-.025-3.801-.014-3.848c-.012-3.134-.028-6.268-.049-9.402l-2-1v-3c4.531-1.791 5.982-2.004 11-1Z"/>
  <path fill="#A793DB" d="M45 91h24l3 8-4 1-1.75-1.875C62.994 95.05 60.406 95.294 56 95l1 10 5 1 2-3h3v11h-3l-2-2c-2.57-.648-2.57-.648-5-1-.081 1.603-.14 3.208-.188 4.813l-.105 2.707c.342 2.896 1.047 3.706 3.293 5.48-2 2-2 2-4.531 2.23l-2.969-.043-2.969-.019C47 126 47 126 45 125l1-3c.095-2.102.13-4.208.133-6.313l.004-3.757-.012-3.93.012-3.93-.004-3.757-.004-3.45C46.127 93.927 46.127 93.927 45 91Z"/>
  <path fill="#F6B2BC" d="M112 134c2.429 7.429 2.429 7.429 1 11l-3-1-.938-1.938c-1.366-2.653-2.233-3.145-5.062-4.062-3.718-.196-6.46-.18-10 1-2.209 5.676-1.72 12.949.25 18.563 2.248 3.16 2.248 3.16 5.75 4.437 5.144-.082 7.047-.186 11-3.563l2-2.437 2 4a367.08 367.08 0 0 1-2.813 3.438l-1.582 1.933c-2.844 2.886-6 2.84-9.855 2.941-5.532-.065-8.376-.92-12.75-4.312-4.525-5.835-5.844-10.759-5-18 1.696-5.255 4.209-9.103 9-12 6.717-3.079 12.942-1.38 20 0Z"/>
  <path fill="#A48FDA" d="m204 100 1 2 3-2c6.972-.664 6.972-.664 10.238 1.445 2.639 3.826 2.196 7.277 2.012 11.805l-.055 2.547A434.108 434.108 0 0 1 220 122l3 1-1 3h-11v-19l-5-1c-1.41 2.82-1.17 5.233-1.188 8.375l-.042 3.46c.218 3.004.66 4.644 2.23 7.165-1 1-1 1-3.504 1.098l-3.059-.035-3.066-.028L195 126l-1-4h2v-17l-3-1v-2c3.823-1.423 6.913-2.24 11-2Z"/>
  <path fill="#A792DD" d="M91 101c2.966 2.299 3.808 3.966 4.488 7.633.482 4.352.815 8.14-.488 12.367l3 1-1 3c-5.39 1.253-5.39 1.253-8.563-.063-3.242-1.246-4.29-.211-7.437 1.063-3.688-.188-3.688-.188-7-1-2-3-2-3-1.875-6.5.875-3.5.875-3.5 2.938-5.438L77 112l-2-1.188c-2-1.812-2-1.812-2.625-4.25C73 104 73 104 75.813 101.75 81.51 98.622 85.005 98.864 91 101Zm-10 2-1 7h5c.68-2.397.68-2.397 1-5l-2-2h-3Zm.875 12L80 117l1 3 5-1v-6c-2.244-.228-2.244-.228-4.125 2Z"/>
  <path fill="#A08DD1" d="M184 100c4.164 1.893 5.631 3.37 7.938 7.313 1.475 5.122.97 8.583-1.125 13.437-2.35 2.916-4.3 3.966-7.813 5.25-5.26.564-8.518-.211-13-3-3.728-3.224-4.844-5.348-5.313-10.313.448-5.283 2.516-8.102 6.438-11.562 4.325-1.692 8.295-1.77 12.875-1.125Zm-8.598 4.203c-2.285 2.928-1.862 5.686-1.773 9.277.549 3.729 1.967 5.665 4.371 8.52 2.473-.344 2.473-.344 5-1 1.728-3.457 1.356-7.214 1-11-1.501-4.368-1.501-4.368-5-7.063-2.067-.127-2.067-.127-3.598 1.266Z"/>
  <path fill="#A990E3" d="M117 100c1 1 1 1 1.063 4.563L118 108c-3.27-.564-4.826-1.5-7-4l-4 2v2l2.625.188c4.33 1.042 6.378 2.53 9.375 5.812.69 3.932.636 5.949-1.438 9.375-4.67 2.962-9.677 2.793-15.062 2.313L100 125c-1.478-2.957-1.06-5.742-1-9h4l1.438 2.5L106 121c2.627.418 2.627.418 5 0v-4l-1.863-.516c-6.542-1.961-6.542-1.961-9.2-4.296-1.258-2.938-1.34-5.026-.937-8.188 4.229-6.232 11.467-5.198 18-4Z"/>
  <path fill="#F4AFB9" d="M179 142c3.063 2 3.063 2 5 4l-1 5-5 1-2-6-6 2c-.922 4.703-1.275 7.702 1 12 1.214 1.442 1.214 1.442 4.813 1.125 2.876-.031 5.435-.208 8.187-1.125-.26 3.212-.575 4.615-3 6.813-4.116 1.629-7.63 1.865-12 1.187-4.113-1.904-5.65-3.4-7.938-7.313-1.475-5.122-.97-8.583 1.125-13.437 4.305-5.343 10.303-6.387 16.813-5.25Z"/>
  <path fill="#A48DD9" d="M162 100v22h2l-1 4c-1.625.027-3.25.046-4.875.063l-2.742.035C153 126 153 126 151 125l1-3c.097-2.844.14-5.657.125-8.5l.012-2.34c-.006-3.305-.085-6.004-1.137-9.16 4.06-1.51 6.546-2 11-2Z"/>
  <path fill="#F9B3BC" d="m157 142 .076 1.956c.116 2.932.239 5.863.362 8.794l.119 3.078.127 2.969.11 2.73c.163 2.756.163 2.756 1.206 6.473h-11l-1-3h2c.054-2.625.094-5.25.125-7.875l.05-2.262c.018-1.955-.072-3.91-.175-5.863l-2-2v-3c3.62-1.316 6.096-2 10-2Z"/>
  <path fill="#A38DD3" d="m82 99 2 1-1 2 2.938.875C89 104 89 104 90 106h-3l-.25 3.375C86 113 86 113 84.25 114.5c-2.715.603-4.59.239-7.25-.5l-.5 3.875-.281 2.18c-.256 1.95-.256 1.95-.219 3.945h-3c-.813-3.188-.813-3.188-1-7 2.438-2.938 2.438-2.938 5-5l-2-1.188c-2-1.812-2-1.812-2.625-4.25C73 104 73 104 75.813 101.75 79 100 79 100 82 99Zm-1 4-1 7h5c.68-2.397.68-2.397 1-5l-2-2h-3Z"/>
  <path fill="#C3AEE7" d="M138 21c5.547 3.39 5.547 3.39 6.594 7.11.281 2.203.281 2.203.406 5.89l-2-1a128.606 128.606 0 0 1-2-7l-2 3-2-2c-3.458-.583-3.458-.583-7 0-1.808 2.374-1.808 2.374-3 5l-3 1-1-1c.161-4.278.316-6.333 3.438-9.375 4.42-2.804 6.354-2.84 11.562-1.625Z"/>
  <path fill="#AB95E5" d="m143 110 5 2-1 10h2l-1 4h-10c0-6.692.29-10.985 5-16Z"/>
  <path fill="#C4B1E6" d="m104 65 .805 1.922c1.104 2.416 1.104 2.416 4.32 3.328L112 71c-2.96 2.366-5.937 4.065-9.352 5.7l-3.078 1.474c-1.581.75-1.581.75-3.195 1.513l-3.219 1.55C85.257 85 85.257 85 83 85v-2c1.872-.963 3.748-1.92 5.625-2.875l3.164-1.617c3.029-1.423 6.017-2.52 9.211-3.508-3.545-2.633-3.545-2.633-7.625-2.563L91 73c2.796-2.187 5.633-3.992 8.75-5.688.8-.436 1.598-.873 2.422-1.324L104 65Z"/>
  <path fill="#9E8AD7" d="M100 115c3 1 3 1 4.375 3.563L106 121c2.543.584 2.543.584 5 0l2-2-1 4c2.048-.564 2.048-.564 4-2 .816-3.06.816-3.06 1-6h2c.309 3.395.387 5.377-1.438 8.313-4.638 3.054-9.662 2.857-15.062 2.374L100 125c-1.491-2.982-1.12-5.716-1-9l1-1Z"/>
  <path fill="#FAAFBC" d="m105.75 132.938 3.547.59L112 134c2.429 7.429 2.429 7.429 1 11l-3-1-.938-1.938c-1.364-2.647-2.267-3.08-5.062-4.062-2.325-.387-4.659-.73-7-1l1-2-3-2c3.774-1.336 6.858-.724 10.75-.063Z"/>
  <path fill="#A390D1" d="M45 91h24l3 8-4 1-1.688-1.813C62.992 95.046 59.416 94.718 55 94v-2h-7v10h-1l-.684-5.957C46.028 93.806 46.028 93.806 45 91Z"/>
  <path fill="#A892E3" d="m168 109 5 1v6h2l3 8c-4.237-.197-5.723-.729-8.813-3.75-2.024-3.008-3.09-4.665-3.187-8.25l2-3Z"/>
  <path fill="#9D8AC8" d="m172 101 1 2-3 2-1 3h3l2-2v10h-1v-6h-5c-.935 2.525-1.036 3.857-.375 6.5 1.681 3.057 3.474 4.59 6.375 6.5h3l1-2 4 2v3c-6.316-.029-10.016-1.126-14.688-5.43-2.897-3.467-2.677-7.268-2.312-11.57 2.027-3.704 3.48-5.654 7-8Z"/>
  <path fill="#A993E3" d="M197 110h5c1 1 1 1 1.133 3.434l-.008 3.004.008 2.996C203 122 203 122 202 124c-3.767 0-4.912-.235-8-2h3v-12Z"/>
  <path fill="#9E8AD9" d="m112.125 99.375 2.695.273C117 100 117 100 118 101c.04 2.333.042 4.667 0 7-2.468-.425-3.712-.687-5.438-2.563-1.5-1.687-1.5-1.687-3.937-1.562L106 104a104.575 104.575 0 0 1-5-1c3.463-3.793 6.13-4.164 11.125-3.625Z"/>
  <path fill="#A993E2" d="M112 109c3.265 1.804 4.89 2.834 7 6h-2l.25 2.813C117 121 117 121 115 122.874L113 124l-2-1 2-4-2-1v-2c-.318-1.67-.65-3.337-1-5h2v-2Z"/>
  <path fill="#9F8EC1" d="M157.5 88.75C160 89 160 89 162 91c-.568 5.568-.568 5.568-2 7-2.438.188-2.438.188-5 0-2-2-2-2-2.25-4.5.35-3.494 1.256-4.4 4.75-4.75Z"/>
  <path fill="#9D8ACF" d="m204 100 1 2 3-2c2.715-.47 5.285-.486 8 0 2 2 2 2 3 4l-9-2v3l-6 2-2-5-7 1v-2c3.073-.91 5.801-1.089 9-1Zm-3 4 1 2-2-1 1-1Z"/>
  <path fill="#C2B1E1" d="M133 59c2.438 1.25 2.438 1.25 5 3l2.75 1.063C143 64 143 64 144 66l-1.844-.902c-6-2.339-9.716-2.292-15.506.244a293.539 293.539 0 0 0-6.244 3.119C117 70 117 70 114 69l1.875-.875c2.258-1.062 2.258-1.062 4.125-3.125 3.375-1.599 5.166-2 9-2v-2c1.688-1.188 1.688-1.188 4-2Z"/>
  <path fill="#EEAAB4" d="M151 131c4.556.556 4.556.556 6 2 .188 2.438.188 2.438 0 5l-2 2c-4.556-.556-4.556-.556-6-2-.188-2.438-.188-2.438 0-5l2-2Z"/>
  <path fill="#AC98E0" d="m82 113-1 3-3-1 1 6h4v2l3 1c-4.327 2.23-7.284 1.925-12 1l2-1-.75-3.25C75 117 75 117 76.75 114.562 79 113 79 113 82 113Z"/>
  <path fill="#C5B1E6" d="M84 76v2c-2 1.625-2 1.625-4 3l1 3v3l-6 2-1-1c.161-4.278.316-6.333 3.438-9.375C81.576 76 81.576 76 84 76Z"/>
  <path fill="#A18ED7" d="M203 110h1l.148 2.266.227 2.984c.07.975.14 1.95.21 2.953.4 2.693 1.05 4.467 2.415 6.797-1 1-1 1-3.504 1.098l-3.059-.035-3.066-.028L195 126l-1-3c3.094-.651 5.848-1 9-1v-12Z"/>
  <path fill="#A090C5" d="m82 99 2 1-1 2c-2.314.73-4.648 1.401-7 2l1 4 1-4h3l-1 6c-2.375.625-2.375.625-5 1-2-2-2-2-2.5-4.375.5-2.625.5-2.625 3.313-4.875C79 100 79 100 82 99Z"/>
  <path fill="#9A88C4" d="m135 100 3 1-1 2 3 2c1.283 3.85 1.066 6.947 1 11l-2-1c-.594-2.649-.742-5.292-1-8-2.345-.77-2.345-.77-5-1-1.835 1.334-1.835 1.334-3 3l-1-3h2l.875-2.438C133 101 133 101 135 100Z"/>
  <path fill="#A894D1" d="M146 115h1v7h2l-1 4h-10v-4h2v2h4l2-9Z"/>
  <path fill="#A78DE5" d="M160.25 101.875 162 103l-1 7h-5l-2-7c3.446-2.215 3.446-2.215 6.25-1.125Z"/>
  <path fill="#A995E0" d="M216 102c2.375 1.563 2.375 1.563 4 3-2 3-2 3-4.625 3.688L213 109l-1-3-2-1v-2l-2-1c2.941-1.47 4.853-.755 8 0Z"/>
  <path fill="#BCA9DE" d="M188 78c2.411.964 3.774 1.688 5.313 3.813.856 2.726.318 4.44-.313 7.187a579.373 579.373 0 0 1-4.938-1.875l-2.777-1.055C183 85 183 85 182 83h5v2l4 1c-.348-1.975-.348-1.975-1-4l-2-1v-3Z"/>
  <path fill="#A798CA" d="M130 115h1v7h2v4h-11l-1-3h7l.438-2.313C129 118 129 118 130 115Z"/>
  <path fill="#AC97E1" d="m192 107 1 8-2 1-1-4-4 2v-7c3-1 3-1 6 0Z"/>
  <path fill="#EBB0B8" d="m131 142 3 1-2 2 1.984 1.02C136 148 136 148 136.391 151.574a140.993 140.993 0 0 1-.141 4.113l-.055 2.127A304.41 304.41 0 0 1 136 163h-1l-.008-2.738c-.115-3.516-.3-6.81-.992-10.262-2.841-2.47-2.841-2.47-6-3v-3l3-2Z"/>
  <path fill="#9F8BD0" d="M99 104h2l.375 2.938L102 110l2 1 2 2 2.5.938C111 115 111 115 113 118c-5.795-1.553-10.343-2.928-14-8-.313-3.313-.313-3.313 0-6Z"/>
  <path fill="#9A87C8" d="M117 115h2c.316 3.473.422 5.376-1.563 8.313-3.113 2.155-5.703 2.4-9.437 2.687v-4l3-1 2-2-1 4c2.048-.564 2.048-.564 4-2 .816-3.06.816-3.06 1-6Z"/>
  <path fill="#E7ACB4" d="M149 153h1v13l7 1v-2h2v3h-11l-1-3h2v-12Z"/>
  <path fill="#9A8CC7" d="M162 100v3l-1.813-.625c-2.472-.682-2.472-.682-5.187 1.625-.25 3.084-.25 3.084 0 6h-2l-2-8c3.823-1.423 6.913-2.24 11-2Z"/>
  <path fill="#9E8ECC" d="M131 89v8l-3-1v-5l-5 1v2l-3-1c3.365-3.87 5.96-4 11-4Z"/>
  <path fill="#A28DCF" d="M85 100c3.679.25 5.556.614 8.375 3.063 2.188 3.954 1.928 6.465 1.625 10.937l-2-1c-.387-2.325-.718-4.66-1-7l-1-3c-3.008-1.225-3.008-1.225-6-2v-1Z"/>
  <path fill="#A993E5" d="M141.25 101.375 144 103v4c-4 0-4 0-5.563-1.375L137 104l-3-2c3.025-2.21 3.68-2.136 7.25-.625Z"/>
  <path fill="#F0A7B3" d="m134 164 2.688.5c2.848.43 5.442.584 8.312.5l-1 3h-11l1-4Z"/>
  <path fill="#EDA6B2" d="m109 134 4 1 1 9h-4l-2-5h3v-3l-2-2Z"/>
  <path fill="#A994E3" d="m157 90 3 1v7l-4-1-1-6 2-1Z"/>
  <path fill="#A48ED7" d="M172 111h1v5h2l2 5-2 1-.75-2.438L173 117c-2.015-.733-2.015-.733-4-1l-1-2 2-2v2h2v-3Z"/>
  <path fill="#9B87C1" d="M161 115h1v7h2l-1 4h-4v-2h2l-.563-3.375C160 117 160 117 161 115Z"/>
  <path fill="#A892E5" d="M187 114h2c.981 3.053.981 4.947 0 8l-4-1 2-7Z"/>
  <path fill="#E9A6B1" d="m103.75 132.438 2.422.308L108 133l-1 2-6-1v2l2 1h-6l1-2-3-2c3.122-.967 5.52-.99 8.75-.563Z"/>
  <path fill="#AD91D5" d="M158 121v5l-7-1 1-3c3-1 3-1 6-1Z"/>
  <path fill="#A28CCA" d="m100 115 3 1c1.188 2.563 1.188 2.563 2 5l-4-1v2h-2c-.043-2-.04-4 0-6l1-1Z"/>
  <path fill="#9C8BCE" d="M205 125v1h-10l-1-3c4.251-1.87 7.09.12 11 2Z"/>
  <path fill="#A790E8" d="m173 101 2 2-3 6-3-1c.313-1.938.313-1.938 1-4l3-1v-2Z"/>
  <path fill="#BCAAE2" d="M81 84v3l-6 2-1-4c2.49-.687 4.379-1 7-1Z"/>
  <path fill="#AE9CDF" d="M193 102h9l-1 3c-2.313.625-2.313.625-5 1l-3-2v-2Z"/>
  <path fill="#A792E3" d="m83 102-2 2h-3v5l-3-1c.375-2.438.375-2.438 1-5 2.463-1.231 4.28-1.072 7-1Z"/>
  <path fill="#ECA1A7" d="m131 142 3 1-2 2v3l-4-1v-3l3-2Z"/>
  <path fill="#AA9BD6" d="m212 121 1 2c2.025.652 2.025.652 4 1v2h-6c0-4 0-4 1-5Z"/>
  <path fill="#9E8FC1" d="M64 103h3v11l-2 1 1-9h-3l1-3Z"/>
  <path fill="#FDB3BD" d="M178 145c1.938.313 1.938.313 4 1l1 3-4 2-1-6Z"/>
  <path fill="#9E8DCC" d="M138 122h2v2h5v2h-7v-4Z"/>
  <path fill="#AF9AE5" d="m100 102 3 1 3-1v2l2 1h-3l-2 3-2-1c-.625-2.563-.625-2.563-1-5Z"/>
  <path fill="#C3B2DF" d="m115 57 1 2c-2.062 3.093-2.904 3.68-6.125 5.188l-2.195 1.042L106 66c1.163-3.489 2.14-4.1 5.063-6.188l2.222-1.605L115 57Z"/>
  <path fill="#A28DD5" d="M130 115h1v7h2l-1 3-4-2c.523-2.763 1.109-5.326 2-8Z"/>
  <path fill="#9E89D2" d="m104 104 3 2v2l5 1v2c-2.741-.37-4.586-.686-6.813-2.375C104 107 104 107 104 104Z"/>
  <path fill="#9A87CE" d="m177 121 5 2v3h-5v-5Z"/>
  <path fill="#9583C6" d="m115 100 3 1v7l-3-1v-7Z"/>
  <path fill="#A28DD4" d="M78 104h3l-1 6-3-1 1-5Z"/>
  <path fill="#D3BEEF" d="M155 61c2.867.573 3.861.861 6 3l-7 1 1-4Z"/>
  <path fill="#ECA4AE" d="m153 144-3 1v3l-3-1v-3c2.49-1.245 3.41-.777 6 0Z"/>
  <path fill="#ECA9B3" d="M125 137h1v9l3 1-1 2h-2c-1.262-2.525-1.099-4.312-1.063-7.125l.028-2.758L125 137Z"/>
  <path fill="#A893DF" d="M182 102c4.875 1.75 4.875 1.75 6 4l-4 1v-2h-2v-3Z"/>
  <path fill="#9D8DBE" d="m45 91 4 1-1 10h-1l-.684-5.957C46.028 93.806 46.028 93.806 45 91Z"/>
  <path fill="#B9A7D4" d="m125 24 1 2c-.938 2.125-.938 2.125-2 4h3v2l-3 1-1-1c.72-6.72.72-6.72 2-8Z"/>
</svg>
